<svg height="638" width="720" xmlns="http://www.w3.org/2000/svg">
<rect height="638" fill="#555" width="720"></rect>
<text fill="#7f7" font-family="Courier New" font-size="12" xml:space="preserve">
<tspan x="10" y="26">3 megabytes installed</tspan>
<tspan x="10" y="42"></tspan>
<tspan x="10" y="58">node_modules</tspan>
<tspan x="10" y="74">└─┬ react-native-css@2.0.4 </tspan>
<tspan x="10" y="90">  ├─┬ css@2.2.1 </tspan>
<tspan x="10" y="106">  │ ├── inherits@2.0.3 </tspan>
<tspan x="10" y="122">  │ ├─┬ source-map@0.1.43 </tspan>
<tspan x="10" y="138">  │ │ └── amdefine@1.0.1 </tspan>
<tspan x="10" y="154">  │ ├─┬ source-map-resolve@0.3.1 </tspan>
<tspan x="10" y="170">  │ │ ├── atob@1.1.3 </tspan>
<tspan x="10" y="186">  │ │ ├── resolve-url@0.2.1 </tspan>
<tspan x="10" y="202">  │ │ └── source-map-url@0.3.0 </tspan>
<tspan x="10" y="218">  │ └── urix@0.1.0 </tspan>
<tspan x="10" y="234">  ├── lodash.get@4.4.2 </tspan>
<tspan x="10" y="250">  ├── lodash.set@4.3.2 </tspan>
<tspan x="10" y="266">  ├─┬ pre-commit@1.2.2 </tspan>
<tspan x="10" y="282">  │ ├─┬ cross-spawn@5.1.0 </tspan>
<tspan x="10" y="298">  │ │ ├─┬ lru-cache@4.0.2 </tspan>
<tspan x="10" y="314">  │ │ │ ├── pseudomap@1.0.2 </tspan>
<tspan x="10" y="330">  │ │ │ └── yallist@2.1.2 </tspan>
<tspan x="10" y="346">  │ │ └─┬ shebang-command@1.2.0 </tspan>
<tspan x="10" y="362">  │ │   └── shebang-regex@1.0.0 </tspan>
<tspan x="10" y="378">  │ ├─┬ spawn-sync@1.0.15 </tspan>
<tspan x="10" y="394">  │ │ ├─┬ concat-stream@1.6.0 </tspan>
<tspan x="10" y="410">  │ │ │ ├─┬ readable-stream@2.2.9 </tspan>
<tspan x="10" y="426">  │ │ │ │ ├── buffer-shims@1.0.0 </tspan>
<tspan x="10" y="442">  │ │ │ │ ├── core-util-is@1.0.2 </tspan>
<tspan x="10" y="458">  │ │ │ │ ├── isarray@1.0.0 </tspan>
<tspan x="10" y="474">  │ │ │ │ ├── process-nextick-args@1.0.7 </tspan>
<tspan x="10" y="490">  │ │ │ │ ├── string_decoder@1.0.0 </tspan>
<tspan x="10" y="506">  │ │ │ │ └── util-deprecate@1.0.2 </tspan>
<tspan x="10" y="522">  │ │ │ └── typedarray@0.0.6 </tspan>
<tspan x="10" y="538">  │ │ └── os-shim@0.1.3 </tspan>
<tspan x="10" y="554">  │ └─┬ which@1.2.14 </tspan>
<tspan x="10" y="570">  │   └── isexe@2.0.0 </tspan>
<tspan x="10" y="586">  └─┬ to-camel-case@0.2.1 </tspan>
<tspan x="10" y="602">    └─┬ to-space-case@0.1.2 </tspan>
<tspan x="10" y="618">      └── to-no-case@0.1.1</tspan>
</text>
</svg>
